<mxfile host="Electron" agent="Mozilla/5.0 (Windows NT 10.0; Win64; x64) AppleWebKit/537.36 (KHTML, like Gecko) draw.io/28.2.5 Chrome/138.0.7204.251 Electron/37.6.1 Safari/537.36" version="28.2.5">
  <diagram name="Page-1" id="LuNdrNHECF0uQ1EvYdN8">
    <mxGraphModel dx="786" dy="596" grid="1" gridSize="10" guides="1" tooltips="1" connect="1" arrows="1" fold="1" page="1" pageScale="1" pageWidth="850" pageHeight="1100" math="0" shadow="0">
      <root>
        <mxCell id="0" />
        <mxCell id="1" parent="0" />
        <mxCell id="2pqB2q2HAftYaFSKYAFg-1" value="Data&amp;nbsp; Flow Diagram" style="text;html=1;align=center;verticalAlign=middle;whiteSpace=wrap;rounded=0;fontStyle=1;fontSize=19;" parent="1" vertex="1">
          <mxGeometry y="30" width="250" height="30" as="geometry" />
        </mxCell>
        <mxCell id="2pqB2q2HAftYaFSKYAFg-2" value="" style="rounded=0;whiteSpace=wrap;html=1;dashed=1;fontStyle=1" parent="1" vertex="1">
          <mxGeometry x="60" y="120" width="120" height="340" as="geometry" />
        </mxCell>
        <mxCell id="2pqB2q2HAftYaFSKYAFg-3" value="Sources" style="text;html=1;align=center;verticalAlign=middle;whiteSpace=wrap;rounded=0;fillColor=default;fontStyle=1" parent="1" vertex="1">
          <mxGeometry x="95" y="100" width="60" height="30" as="geometry" />
        </mxCell>
        <mxCell id="2pqB2q2HAftYaFSKYAFg-11" style="edgeStyle=orthogonalEdgeStyle;rounded=0;orthogonalLoop=1;jettySize=auto;html=1;entryX=0;entryY=0.75;entryDx=0;entryDy=0;" parent="1" edge="1">
          <mxGeometry relative="1" as="geometry">
            <mxPoint x="140" y="232" as="sourcePoint" />
            <mxPoint x="260" y="231.60000000000002" as="targetPoint" />
          </mxGeometry>
        </mxCell>
        <mxCell id="2pqB2q2HAftYaFSKYAFg-4" value="CRM" style="image;aspect=fixed;html=1;points=[];align=center;fontSize=12;image=img/lib/azure2/general/Folder_Blank.svg;fontStyle=1" parent="1" vertex="1">
          <mxGeometry x="102.82" y="211.6" width="47.18" height="38.28" as="geometry" />
        </mxCell>
        <mxCell id="2pqB2q2HAftYaFSKYAFg-33" style="edgeStyle=orthogonalEdgeStyle;rounded=0;orthogonalLoop=1;jettySize=auto;html=1;entryX=0;entryY=0.75;entryDx=0;entryDy=0;" parent="1" source="2pqB2q2HAftYaFSKYAFg-5" target="2pqB2q2HAftYaFSKYAFg-24" edge="1">
          <mxGeometry relative="1" as="geometry" />
        </mxCell>
        <mxCell id="2pqB2q2HAftYaFSKYAFg-5" value="ERP" style="image;aspect=fixed;html=1;points=[];align=center;fontSize=12;image=img/lib/azure2/general/Folder_Blank.svg;fontStyle=1" parent="1" vertex="1">
          <mxGeometry x="101.41" y="346.86" width="47.18" height="38.29" as="geometry" />
        </mxCell>
        <mxCell id="2pqB2q2HAftYaFSKYAFg-6" value="" style="rounded=0;whiteSpace=wrap;html=1;fillColor=#ffe6cc;strokeColor=#d79b00;fillStyle=hatch;" parent="1" vertex="1">
          <mxGeometry x="250" y="130" width="120" height="320" as="geometry" />
        </mxCell>
        <mxCell id="2pqB2q2HAftYaFSKYAFg-7" value="&lt;b&gt;Bronze layer&lt;/b&gt;" style="rounded=0;whiteSpace=wrap;html=1;fillColor=#ffe6cc;strokeColor=#d79b00;" parent="1" vertex="1">
          <mxGeometry x="250" y="90" width="120" height="30" as="geometry" />
        </mxCell>
        <mxCell id="2pqB2q2HAftYaFSKYAFg-8" value="crm_sales_details" style="rounded=0;whiteSpace=wrap;html=1;fillColor=#ffe6cc;strokeColor=#d79b00;" parent="1" vertex="1">
          <mxGeometry x="260" y="170" width="110" height="20" as="geometry" />
        </mxCell>
        <mxCell id="2pqB2q2HAftYaFSKYAFg-9" value="crm_cust_info" style="rounded=0;whiteSpace=wrap;html=1;fillColor=#ffe6cc;strokeColor=#d79b00;" parent="1" vertex="1">
          <mxGeometry x="260" y="220.74" width="100" height="20" as="geometry" />
        </mxCell>
        <mxCell id="2pqB2q2HAftYaFSKYAFg-10" value="crm_prod_info" style="rounded=0;whiteSpace=wrap;html=1;fillColor=#ffe6cc;strokeColor=#d79b00;" parent="1" vertex="1">
          <mxGeometry x="260" y="260" width="100" height="20" as="geometry" />
        </mxCell>
        <mxCell id="2pqB2q2HAftYaFSKYAFg-18" style="edgeStyle=orthogonalEdgeStyle;rounded=0;orthogonalLoop=1;jettySize=auto;html=1;entryX=-0.011;entryY=0.182;entryDx=0;entryDy=0;entryPerimeter=0;" parent="1" source="2pqB2q2HAftYaFSKYAFg-4" target="2pqB2q2HAftYaFSKYAFg-6" edge="1">
          <mxGeometry relative="1" as="geometry" />
        </mxCell>
        <mxCell id="2pqB2q2HAftYaFSKYAFg-19" style="edgeStyle=orthogonalEdgeStyle;rounded=0;orthogonalLoop=1;jettySize=auto;html=1;entryX=0.033;entryY=0.464;entryDx=0;entryDy=0;entryPerimeter=0;" parent="1" source="2pqB2q2HAftYaFSKYAFg-4" target="2pqB2q2HAftYaFSKYAFg-6" edge="1">
          <mxGeometry relative="1" as="geometry" />
        </mxCell>
        <mxCell id="WOsIJDeXY4Xy3JF16FnO-16" style="edgeStyle=orthogonalEdgeStyle;rounded=0;orthogonalLoop=1;jettySize=auto;html=1;entryX=0;entryY=0.5;entryDx=0;entryDy=0;" parent="1" source="2pqB2q2HAftYaFSKYAFg-24" target="WOsIJDeXY4Xy3JF16FnO-6" edge="1">
          <mxGeometry relative="1" as="geometry" />
        </mxCell>
        <mxCell id="2pqB2q2HAftYaFSKYAFg-24" value="crm_sales_details" style="rounded=0;whiteSpace=wrap;html=1;fillColor=#ffe6cc;strokeColor=#d79b00;" parent="1" vertex="1">
          <mxGeometry x="260" y="320" width="100" height="20" as="geometry" />
        </mxCell>
        <mxCell id="2pqB2q2HAftYaFSKYAFg-25" value="crm_cust_info" style="rounded=0;whiteSpace=wrap;html=1;fillColor=#ffe6cc;strokeColor=#d79b00;" parent="1" vertex="1">
          <mxGeometry x="260" y="356" width="100" height="20" as="geometry" />
        </mxCell>
        <mxCell id="2pqB2q2HAftYaFSKYAFg-26" value="crm_prod_info" style="rounded=0;whiteSpace=wrap;html=1;fillColor=#ffe6cc;strokeColor=#d79b00;" parent="1" vertex="1">
          <mxGeometry x="260" y="400" width="100" height="20" as="geometry" />
        </mxCell>
        <mxCell id="2pqB2q2HAftYaFSKYAFg-27" style="edgeStyle=orthogonalEdgeStyle;rounded=0;orthogonalLoop=1;jettySize=auto;html=1;entryX=0.107;entryY=0.417;entryDx=0;entryDy=0;entryPerimeter=0;" parent="1" source="2pqB2q2HAftYaFSKYAFg-5" target="2pqB2q2HAftYaFSKYAFg-25" edge="1">
          <mxGeometry relative="1" as="geometry">
            <Array as="points">
              <mxPoint x="210" y="366" />
              <mxPoint x="210" y="364" />
            </Array>
          </mxGeometry>
        </mxCell>
        <mxCell id="2pqB2q2HAftYaFSKYAFg-28" style="edgeStyle=orthogonalEdgeStyle;rounded=0;orthogonalLoop=1;jettySize=auto;html=1;exitX=0.25;exitY=1;exitDx=0;exitDy=0;entryX=0.5;entryY=1;entryDx=0;entryDy=0;" parent="1" source="2pqB2q2HAftYaFSKYAFg-25" target="2pqB2q2HAftYaFSKYAFg-25" edge="1">
          <mxGeometry relative="1" as="geometry" />
        </mxCell>
        <mxCell id="2pqB2q2HAftYaFSKYAFg-32" style="edgeStyle=orthogonalEdgeStyle;rounded=0;orthogonalLoop=1;jettySize=auto;html=1;entryX=0.061;entryY=0.893;entryDx=0;entryDy=0;entryPerimeter=0;" parent="1" source="2pqB2q2HAftYaFSKYAFg-5" target="2pqB2q2HAftYaFSKYAFg-6" edge="1">
          <mxGeometry relative="1" as="geometry" />
        </mxCell>
        <mxCell id="WOsIJDeXY4Xy3JF16FnO-1" value="" style="rounded=0;whiteSpace=wrap;html=1;fillColor=#f5f5f5;strokeColor=#666666;fillStyle=hatch;fontColor=#333333;" parent="1" vertex="1">
          <mxGeometry x="470" y="130" width="120" height="320" as="geometry" />
        </mxCell>
        <mxCell id="WOsIJDeXY4Xy3JF16FnO-2" value="&lt;b&gt;Silver layer&lt;/b&gt;" style="rounded=0;whiteSpace=wrap;html=1;fillColor=#f5f5f5;strokeColor=#666666;fontColor=#333333;" parent="1" vertex="1">
          <mxGeometry x="470" y="90" width="120" height="30" as="geometry" />
        </mxCell>
        <mxCell id="WOsIJDeXY4Xy3JF16FnO-3" value="crm_sales_details" style="rounded=0;whiteSpace=wrap;html=1;fillColor=#f5f5f5;strokeColor=#666666;fontColor=#333333;" parent="1" vertex="1">
          <mxGeometry x="480" y="170" width="100" height="20" as="geometry" />
        </mxCell>
        <mxCell id="WOsIJDeXY4Xy3JF16FnO-4" value="crm_cust_info" style="rounded=0;whiteSpace=wrap;html=1;fillColor=#f5f5f5;strokeColor=#666666;fontColor=#333333;" parent="1" vertex="1">
          <mxGeometry x="480" y="220.74" width="100" height="20" as="geometry" />
        </mxCell>
        <mxCell id="WOsIJDeXY4Xy3JF16FnO-5" value="crm_prod_info" style="rounded=0;whiteSpace=wrap;html=1;fillColor=#f5f5f5;strokeColor=#666666;fontColor=#333333;" parent="1" vertex="1">
          <mxGeometry x="480" y="260" width="100" height="20" as="geometry" />
        </mxCell>
        <mxCell id="WOsIJDeXY4Xy3JF16FnO-6" value="crm_sales_details" style="rounded=0;whiteSpace=wrap;html=1;fillColor=#f5f5f5;strokeColor=#666666;fontColor=#333333;" parent="1" vertex="1">
          <mxGeometry x="480" y="320" width="100" height="20" as="geometry" />
        </mxCell>
        <mxCell id="WOsIJDeXY4Xy3JF16FnO-7" value="crm_cust_info" style="rounded=0;whiteSpace=wrap;html=1;fillColor=#f5f5f5;strokeColor=#666666;fontColor=#333333;" parent="1" vertex="1">
          <mxGeometry x="480" y="356" width="100" height="20" as="geometry" />
        </mxCell>
        <mxCell id="WOsIJDeXY4Xy3JF16FnO-8" value="crm_prod_info" style="rounded=0;whiteSpace=wrap;html=1;fillColor=#f5f5f5;strokeColor=#666666;fontColor=#333333;" parent="1" vertex="1">
          <mxGeometry x="480" y="400" width="100" height="20" as="geometry" />
        </mxCell>
        <mxCell id="WOsIJDeXY4Xy3JF16FnO-9" style="edgeStyle=orthogonalEdgeStyle;rounded=0;orthogonalLoop=1;jettySize=auto;html=1;exitX=0.25;exitY=1;exitDx=0;exitDy=0;entryX=0.5;entryY=1;entryDx=0;entryDy=0;fillColor=#f5f5f5;strokeColor=#666666;" parent="1" source="WOsIJDeXY4Xy3JF16FnO-7" target="WOsIJDeXY4Xy3JF16FnO-7" edge="1">
          <mxGeometry relative="1" as="geometry" />
        </mxCell>
        <mxCell id="WOsIJDeXY4Xy3JF16FnO-11" style="edgeStyle=orthogonalEdgeStyle;rounded=0;orthogonalLoop=1;jettySize=auto;html=1;entryX=-0.017;entryY=0.159;entryDx=0;entryDy=0;entryPerimeter=0;" parent="1" source="2pqB2q2HAftYaFSKYAFg-8" target="WOsIJDeXY4Xy3JF16FnO-1" edge="1">
          <mxGeometry relative="1" as="geometry" />
        </mxCell>
        <mxCell id="WOsIJDeXY4Xy3JF16FnO-14" style="edgeStyle=orthogonalEdgeStyle;rounded=0;orthogonalLoop=1;jettySize=auto;html=1;entryX=0;entryY=0.439;entryDx=0;entryDy=0;entryPerimeter=0;" parent="1" source="2pqB2q2HAftYaFSKYAFg-10" target="WOsIJDeXY4Xy3JF16FnO-1" edge="1">
          <mxGeometry relative="1" as="geometry" />
        </mxCell>
        <mxCell id="WOsIJDeXY4Xy3JF16FnO-15" style="edgeStyle=orthogonalEdgeStyle;rounded=0;orthogonalLoop=1;jettySize=auto;html=1;entryX=0.044;entryY=0.314;entryDx=0;entryDy=0;entryPerimeter=0;" parent="1" source="2pqB2q2HAftYaFSKYAFg-9" target="WOsIJDeXY4Xy3JF16FnO-1" edge="1">
          <mxGeometry relative="1" as="geometry" />
        </mxCell>
        <mxCell id="WOsIJDeXY4Xy3JF16FnO-18" style="edgeStyle=orthogonalEdgeStyle;rounded=0;orthogonalLoop=1;jettySize=auto;html=1;entryX=0.056;entryY=0.722;entryDx=0;entryDy=0;entryPerimeter=0;" parent="1" source="2pqB2q2HAftYaFSKYAFg-25" target="WOsIJDeXY4Xy3JF16FnO-1" edge="1">
          <mxGeometry relative="1" as="geometry">
            <Array as="points">
              <mxPoint x="477" y="366" />
            </Array>
          </mxGeometry>
        </mxCell>
        <mxCell id="WOsIJDeXY4Xy3JF16FnO-19" style="edgeStyle=orthogonalEdgeStyle;rounded=0;orthogonalLoop=1;jettySize=auto;html=1;entryX=0.05;entryY=0.864;entryDx=0;entryDy=0;entryPerimeter=0;" parent="1" source="2pqB2q2HAftYaFSKYAFg-26" target="WOsIJDeXY4Xy3JF16FnO-1" edge="1">
          <mxGeometry relative="1" as="geometry">
            <Array as="points">
              <mxPoint x="430" y="410" />
              <mxPoint x="430" y="407" />
            </Array>
          </mxGeometry>
        </mxCell>
        <mxCell id="N0kf4S_Z3IMdxa-SHkEO-1" value="" style="rounded=0;whiteSpace=wrap;html=1;fillColor=#fff2cc;strokeColor=#d6b656;fillStyle=hatch;" vertex="1" parent="1">
          <mxGeometry x="670" y="130" width="120" height="320" as="geometry" />
        </mxCell>
        <mxCell id="N0kf4S_Z3IMdxa-SHkEO-2" value="&lt;b&gt;Gold layer&lt;/b&gt;" style="rounded=0;whiteSpace=wrap;html=1;fillColor=#fff2cc;strokeColor=#d6b656;" vertex="1" parent="1">
          <mxGeometry x="670" y="90" width="120" height="30" as="geometry" />
        </mxCell>
        <mxCell id="N0kf4S_Z3IMdxa-SHkEO-3" value="fact_sales" style="rounded=0;whiteSpace=wrap;html=1;fillColor=#fff2cc;strokeColor=#d6b656;" vertex="1" parent="1">
          <mxGeometry x="680" y="170" width="100" height="20" as="geometry" />
        </mxCell>
        <mxCell id="N0kf4S_Z3IMdxa-SHkEO-4" value="dim_customers" style="rounded=0;whiteSpace=wrap;html=1;fillColor=#fff2cc;strokeColor=#d6b656;" vertex="1" parent="1">
          <mxGeometry x="680" y="270" width="100" height="20" as="geometry" />
        </mxCell>
        <mxCell id="N0kf4S_Z3IMdxa-SHkEO-5" value="dim_products" style="rounded=0;whiteSpace=wrap;html=1;fillColor=#fff2cc;strokeColor=#d6b656;" vertex="1" parent="1">
          <mxGeometry x="680" y="336" width="100" height="20" as="geometry" />
        </mxCell>
        <mxCell id="N0kf4S_Z3IMdxa-SHkEO-11" value="" style="endArrow=classic;html=1;rounded=0;entryX=-0.022;entryY=0.156;entryDx=0;entryDy=0;entryPerimeter=0;" edge="1" parent="1" target="N0kf4S_Z3IMdxa-SHkEO-1">
          <mxGeometry width="50" height="50" relative="1" as="geometry">
            <mxPoint x="590" y="180" as="sourcePoint" />
            <mxPoint x="640" y="130" as="targetPoint" />
          </mxGeometry>
        </mxCell>
        <mxCell id="N0kf4S_Z3IMdxa-SHkEO-12" value="" style="endArrow=classic;html=1;rounded=0;entryX=0.006;entryY=0.446;entryDx=0;entryDy=0;entryPerimeter=0;" edge="1" parent="1" target="N0kf4S_Z3IMdxa-SHkEO-1">
          <mxGeometry width="50" height="50" relative="1" as="geometry">
            <mxPoint x="580" y="240" as="sourcePoint" />
            <mxPoint x="630" y="190" as="targetPoint" />
          </mxGeometry>
        </mxCell>
        <mxCell id="N0kf4S_Z3IMdxa-SHkEO-13" value="" style="endArrow=classic;html=1;rounded=0;entryX=-0.033;entryY=0.456;entryDx=0;entryDy=0;entryPerimeter=0;" edge="1" parent="1" target="N0kf4S_Z3IMdxa-SHkEO-1">
          <mxGeometry width="50" height="50" relative="1" as="geometry">
            <mxPoint x="580" y="330" as="sourcePoint" />
            <mxPoint x="630" y="280" as="targetPoint" />
            <Array as="points" />
          </mxGeometry>
        </mxCell>
        <mxCell id="N0kf4S_Z3IMdxa-SHkEO-14" value="" style="endArrow=classic;html=1;rounded=0;entryX=-0.006;entryY=0.479;entryDx=0;entryDy=0;entryPerimeter=0;" edge="1" parent="1" target="N0kf4S_Z3IMdxa-SHkEO-1">
          <mxGeometry width="50" height="50" relative="1" as="geometry">
            <mxPoint x="580" y="370" as="sourcePoint" />
            <mxPoint x="640" y="320" as="targetPoint" />
          </mxGeometry>
        </mxCell>
        <mxCell id="N0kf4S_Z3IMdxa-SHkEO-15" value="" style="endArrow=classic;html=1;rounded=0;entryX=0.028;entryY=0.665;entryDx=0;entryDy=0;entryPerimeter=0;" edge="1" parent="1" target="N0kf4S_Z3IMdxa-SHkEO-1">
          <mxGeometry width="50" height="50" relative="1" as="geometry">
            <mxPoint x="580" y="280" as="sourcePoint" />
            <mxPoint x="630" y="230" as="targetPoint" />
          </mxGeometry>
        </mxCell>
        <mxCell id="N0kf4S_Z3IMdxa-SHkEO-16" value="" style="endArrow=classic;html=1;rounded=0;" edge="1" parent="1">
          <mxGeometry width="50" height="50" relative="1" as="geometry">
            <mxPoint x="580" y="410" as="sourcePoint" />
            <mxPoint x="670" y="340" as="targetPoint" />
          </mxGeometry>
        </mxCell>
      </root>
    </mxGraphModel>
  </diagram>
</mxfile>
